<svg width="44" height="44" viewBox="0 0 44 44" fill="none" xmlns="http://www.w3.org/2000/svg">
<path d="M17.3809 34.0003H9.70235C8.12539 34.0003 6.84492 32.7198 6.84492 31.1429C6.84492 30.5843 7.00821 30.0386 7.31758 29.5702L10.9012 24.1261C11.4297 23.3226 12.3234 22.8413 13.2859 22.8413H20.9516L17.3809 34.0003ZM13.2859 25.1272C13.0926 25.1272 12.9164 25.2218 12.809 25.3851L9.22539 30.8292C9.16524 30.9237 9.13086 31.0312 9.13086 31.1429C9.13086 31.4565 9.38867 31.7144 9.70235 31.7144H15.7137L17.8191 25.1315H13.2859V25.1272Z" fill="#F0F0F0"/>
<path d="M28.0242 33.9999H15.7523L17.5914 22.8452H26.1852L28.0242 33.9999ZM18.4465 31.714H25.3301L24.243 25.1269H19.5336L18.4465 31.714Z" fill="#F0F0F0"/>
<path d="M34.7015 34.0003H27.023L23.4523 22.8413H31.118C32.0805 22.8413 32.9742 23.3226 33.5027 24.1261L37.0863 29.5702C37.5074 30.2062 37.6535 30.971 37.4988 31.7187C37.3441 32.4663 36.9101 33.1065 36.2699 33.5276C35.8058 33.837 35.2601 34.0003 34.7015 34.0003ZM28.6902 31.7144H34.7015C34.8133 31.7144 34.9207 31.68 35.0152 31.6198C35.1871 31.5081 35.243 31.3448 35.2601 31.2589C35.2773 31.173 35.2902 31.0011 35.1785 30.8292L31.5949 25.3894C31.4875 25.2261 31.3113 25.1315 31.118 25.1315H26.5805L28.6902 31.7144Z" fill="#F0F0F0"/>
<path d="M22.202 28.9049C21.6649 28.9049 21.132 28.7201 20.7066 28.3506C15.3055 23.6842 12.6801 19.5377 12.6801 15.6834C12.6801 9.54746 17.6043 5.42676 22.202 5.42676C26.7996 5.42676 31.7238 9.54746 31.7238 15.6834C31.7238 19.5377 29.0984 23.6842 23.693 28.3506C23.2719 28.7201 22.7348 28.9049 22.202 28.9049ZM22.202 7.7127C18.7774 7.7127 14.966 10.9869 14.966 15.6834C14.966 18.79 17.4024 22.4725 22.202 26.6232C27.0059 22.4725 29.4379 18.79 29.4379 15.6834C29.4379 10.9869 25.6266 7.7127 22.202 7.7127Z" fill="#F0F0F0"/>
<path d="M22.202 20.2855C19.2629 20.2855 16.8695 17.8921 16.8695 14.953C16.8695 12.014 19.2629 9.62061 22.202 9.62061C25.141 9.62061 27.5344 12.0097 27.5344 14.953C27.5344 17.8964 25.141 20.2855 22.202 20.2855ZM22.202 11.9022C20.5219 11.9022 19.1555 13.2687 19.1555 14.9487C19.1555 16.6288 20.5219 17.9952 22.202 17.9952C23.882 17.9952 25.2484 16.6288 25.2484 14.9487C25.2484 13.2687 23.882 11.9022 22.202 11.9022Z" fill="#F0F0F0"/>
</svg>
