<svg width="34" height="34" viewBox="0 0 34 34" fill="none" xmlns="http://www.w3.org/2000/svg">
<g clip-path="url(#clip0_17_187)">
<path d="M18.4521 24.0832H5.25158L13.6992 15.6356L17 18.1757L20.3008 15.6342L22.5717 17.9051C23.0254 17.6648 23.5019 17.4702 23.9941 17.3243L21.4327 14.7629L29.75 8.35817V17.8782C30.2535 18.1285 30.7284 18.4325 31.1667 18.7848V7.7915C31.1652 7.22838 30.9408 6.68875 30.5426 6.29055C30.1444 5.89236 29.6048 5.668 29.0417 5.6665H4.95833C4.3952 5.668 3.85557 5.89236 3.45738 6.29055C3.05919 6.68875 2.83482 7.22838 2.83333 7.7915V23.3748C2.83333 23.9384 3.05721 24.4789 3.45573 24.8774C3.85424 25.276 4.39474 25.4998 4.95833 25.4998H18.4521C18.4308 25.2661 18.4167 25.0309 18.4167 24.7915C18.4167 24.5521 18.4308 24.3169 18.4521 24.0832ZM4.24999 23.0816V8.35959L12.5672 14.7629L4.24999 23.0816ZM29.0417 7.08317C29.0544 7.08317 29.0643 7.09025 29.0771 7.09025L17 16.3907L4.92291 7.09025C4.93566 7.09025 4.94558 7.08317 4.95833 7.08317H29.0417ZM26.2083 18.4165C24.5181 18.4184 22.8977 19.0906 21.7026 20.2858C20.5075 21.4809 19.8352 23.1013 19.8333 24.7915C19.8434 25.0288 19.8671 25.2653 19.9042 25.4998C20.0748 27.0541 20.8119 28.491 21.9748 29.5363C23.1376 30.5816 24.6447 31.1619 26.2083 31.1665H26.9167V29.7498H26.2083C25.0191 29.7465 23.8707 29.3152 22.9733 28.5348C22.0758 27.7545 21.4893 26.6771 21.3208 25.4998C21.2801 25.2658 21.2564 25.029 21.25 24.7915C21.2493 23.8153 21.5371 22.8606 22.077 22.0473C22.617 21.234 23.3851 20.5983 24.2851 20.22C25.185 19.8416 26.1767 19.7376 27.1356 19.9208C28.0944 20.104 28.9779 20.5664 29.6749 21.2498H28.3333V21.9766C27.7238 21.508 26.9772 21.2527 26.2083 21.2498C25.6278 21.2482 25.0558 21.3893 24.5426 21.6607C24.0294 21.9321 23.5908 22.3254 23.2654 22.8062C22.9399 23.2869 22.7377 23.8403 22.6764 24.4176C22.6151 24.9949 22.6967 25.5784 22.9139 26.1167C23.1311 26.6551 23.4773 27.1318 23.9221 27.5049C24.3669 27.878 24.8965 28.136 25.4645 28.2563C26.0324 28.3766 26.6212 28.3554 27.179 28.1947C27.7368 28.0339 28.2466 27.7385 28.6634 27.3344C28.9074 27.7255 29.2722 28.0263 29.7025 28.1915C30.1328 28.3567 30.6052 28.3772 31.0482 28.25C31.4912 28.1227 31.8807 27.8545 32.1577 27.4861C32.4347 27.1177 32.5841 26.6691 32.5833 26.2082V24.7915C32.5631 23.107 31.885 21.4972 30.6938 20.3061C29.5026 19.1149 27.8928 18.4367 26.2083 18.4165ZM26.2083 26.9165C25.7703 26.9151 25.3434 26.7782 24.9863 26.5245C24.6292 26.2709 24.3593 25.913 24.2137 25.4998C24.1298 25.273 24.0857 25.0334 24.0833 24.7915C24.0833 24.2279 24.3072 23.6874 24.7057 23.2889C25.1042 22.8904 25.6447 22.6665 26.2083 22.6665C26.7719 22.6665 27.3124 22.8904 27.7109 23.2889C28.1094 23.6874 28.3333 24.2279 28.3333 24.7915C28.331 25.0334 28.2869 25.273 28.203 25.4998C28.0574 25.913 27.7875 26.2709 27.4304 26.5245C27.0732 26.7782 26.6464 26.9151 26.2083 26.9165ZM31.1667 26.2082C31.1667 26.396 31.092 26.5762 30.9592 26.709C30.8264 26.8419 30.6462 26.9165 30.4583 26.9165C30.2705 26.9165 30.0903 26.8419 29.9575 26.709C29.8246 26.5762 29.75 26.396 29.75 26.2082V21.3249C30.6401 22.262 31.1457 23.4992 31.1667 24.7915V26.2082Z" fill="#F0F0F0"/>
</g>
<defs>
<clipPath id="clip0_17_187">
<rect width="34" height="34" fill="white"/>
</clipPath>
</defs>
</svg>
