<svg width="33" height="33" viewBox="0 0 33 33" fill="none" xmlns="http://www.w3.org/2000/svg">
<g clip-path="url(#clip0_17_213)">
<path d="M16.5 0C7.38736 0 0 7.38736 0 16.5C0 25.6126 7.38736 33 16.5 33C25.6126 33 33 25.6126 33 16.5C33 7.38736 25.6126 0 16.5 0ZM16.5 31.9688C7.95661 31.9688 1.03125 25.0429 1.03125 16.5C1.03125 7.95661 7.95661 1.03125 16.5 1.03125C25.0434 1.03125 31.9688 7.95661 31.9688 16.5C31.9688 25.0429 25.0434 31.9688 16.5 31.9688Z" fill="#F0F0F0"/>
<path d="M16.5 17.0156C16.7848 17.0156 17.0156 16.7848 17.0156 16.5C17.0156 16.2152 16.7848 15.9844 16.5 15.9844C16.2152 15.9844 15.9844 16.2152 15.9844 16.5C15.9844 16.7848 16.2152 17.0156 16.5 17.0156Z" fill="#F0F0F0"/>
<path d="M19.0425 16.8547C19.0585 16.7377 19.0781 16.6217 19.0781 16.5C19.0781 15.659 18.6697 14.9201 18.0469 14.4488V7.21875C18.0469 6.36436 17.3544 5.67188 16.5 5.67188C15.6456 5.67188 14.9531 6.36436 14.9531 7.21875V14.4488C14.3303 14.9196 13.9219 15.659 13.9219 16.5C13.9219 17.9242 15.0758 19.0781 16.5 19.0781C16.6212 19.0781 16.7377 19.0585 16.8547 19.0425L21.2401 23.4279C21.8445 24.0323 22.8231 24.0317 23.4274 23.4274C24.0317 22.8231 24.0317 21.8445 23.4274 21.2401L19.0425 16.8547ZM15.9844 7.21875C15.9844 6.93361 16.2149 6.70312 16.5 6.70312C16.7851 6.70312 17.0156 6.93361 17.0156 7.21875V13.974C16.8491 13.9399 16.6769 13.9219 16.5 13.9219C16.3231 13.9219 16.1509 13.9399 15.9844 13.974V7.21875ZM14.9531 16.5C14.9531 15.6456 15.6456 14.9531 16.5 14.9531C17.3544 14.9531 18.0469 15.6456 18.0469 16.5C18.0469 17.3544 17.3544 18.0469 16.5 18.0469C15.6456 18.0469 14.9531 17.3544 14.9531 16.5ZM22.6983 22.6983C22.4967 22.9005 22.1708 22.9005 21.9692 22.6988L17.92 18.6496C18.2098 18.4578 18.4578 18.2098 18.6496 17.92L22.6983 21.9692C22.8994 22.1703 22.8994 22.4967 22.6983 22.6983Z" fill="#F0F0F0"/>
<path d="M16.5 2.0625C8.52638 2.0625 2.0625 8.52638 2.0625 16.5C2.0625 24.4736 8.52638 30.9375 16.5 30.9375C24.4736 30.9375 30.9375 24.4736 30.9375 16.5C30.9375 8.52638 24.4736 2.0625 16.5 2.0625ZM26.3355 25.6059L25.2512 24.5211C25.0485 24.32 24.7227 24.32 24.5216 24.5211C24.32 24.7232 24.32 25.0485 24.5216 25.2507L25.6065 26.3355C23.3331 28.4419 20.329 29.7681 17.0161 29.8934L17.0167 28.3599C17.0156 28.0747 16.7851 27.8443 16.501 27.8443C16.2154 27.8448 15.9854 28.0747 15.9854 28.3599L15.9849 29.8934C12.672 29.7681 9.66797 28.4424 7.39458 26.3366L8.47945 25.2517C8.68055 25.0496 8.68055 24.7237 8.47945 24.5226C8.27681 24.321 7.95197 24.321 7.75036 24.5226L6.66548 25.6075C4.55967 23.3341 3.23348 20.3301 3.10767 17.0172H4.64114C4.92628 17.0167 5.15677 16.7862 5.15677 16.5015C5.15625 16.2159 4.92628 15.9859 4.64114 15.9859H3.10664C3.23194 12.673 4.55761 9.66848 6.66342 7.39509L7.7483 8.47997C7.94991 8.68158 8.27578 8.68158 8.47739 8.47997C8.679 8.27784 8.679 7.95248 8.47739 7.75087L7.39252 6.666C9.66591 4.55967 12.6705 3.23348 15.9833 3.10819V4.64062C15.9833 4.92577 16.2138 5.15625 16.499 5.15625C16.7841 5.15625 17.0146 4.92577 17.0146 4.64062V3.10664C20.3275 3.23194 23.332 4.55761 25.6054 6.66394L24.5205 7.74881C24.3189 7.95042 24.3189 8.2763 24.5205 8.47791C24.7222 8.67952 25.048 8.67952 25.2496 8.47791L26.335 7.39303C28.4408 9.66642 29.767 12.671 29.8923 15.9839H28.3594C28.0742 15.9839 27.8438 16.2143 27.8438 16.4995C27.8438 16.7846 28.0742 17.0151 28.3594 17.0151H29.8934C29.7675 20.3285 28.4419 23.3325 26.3355 25.6059Z" fill="#F0F0F0"/>
</g>
<defs>
<clipPath id="clip0_17_213">
<rect width="33" height="33" fill="white"/>
</clipPath>
</defs>
</svg>
