<svg width="29" height="29" viewBox="0 0 29 29" fill="none" xmlns="http://www.w3.org/2000/svg">
<path d="M26.5471 22.1486C26.5471 22.5836 26.4504 23.0307 26.245 23.4657C26.0396 23.9007 25.7738 24.3115 25.4233 24.6982C24.8313 25.3507 24.1788 25.8219 23.4417 26.124C22.7167 26.4261 21.9313 26.5832 21.0854 26.5832C19.8529 26.5832 18.5358 26.2932 17.1463 25.7011C15.7567 25.109 14.3671 24.3115 12.9896 23.3086C11.6 22.2936 10.2829 21.1698 9.02625 19.9253C7.78167 18.6686 6.65792 17.3515 5.655 15.974C4.66417 14.5965 3.86667 13.219 3.28667 11.8536C2.70667 10.4761 2.41667 9.159 2.41667 7.90234C2.41667 7.08067 2.56167 6.29525 2.85167 5.57025C3.14167 4.83317 3.60084 4.1565 4.24125 3.55234C5.01459 2.79109 5.86042 2.4165 6.75459 2.4165C7.09292 2.4165 7.43125 2.489 7.73334 2.634C8.0475 2.779 8.32542 2.9965 8.54292 3.31067L11.3463 7.26192C11.5638 7.564 11.7208 7.84192 11.8296 8.10775C11.9383 8.3615 11.9988 8.61525 11.9988 8.84484C11.9988 9.13484 11.9142 9.42484 11.745 9.70275C11.5879 9.98067 11.3583 10.2707 11.0683 10.5607L10.15 11.5153C10.0171 11.6482 9.95667 11.8053 9.95667 11.9986C9.95667 12.0953 9.96876 12.1798 9.99292 12.2765C10.0292 12.3732 10.0654 12.4457 10.0896 12.5182C10.3071 12.9169 10.6817 13.4365 11.2133 14.0648C11.7571 14.6932 12.3371 15.3336 12.9654 15.974C13.6179 16.6144 14.2463 17.2065 14.8867 17.7503C15.515 18.2819 16.0346 18.6444 16.4454 18.8619C16.5058 18.8861 16.5783 18.9223 16.6629 18.9586C16.7596 18.9948 16.8563 19.0069 16.965 19.0069C17.1704 19.0069 17.3275 18.9344 17.4604 18.8015L18.3788 17.8953C18.6808 17.5932 18.9708 17.3636 19.2488 17.2186C19.5267 17.0494 19.8046 16.9648 20.1067 16.9648C20.3363 16.9648 20.5779 17.0132 20.8438 17.1219C21.1096 17.2307 21.3875 17.3878 21.6896 17.5932L25.6892 20.4328C26.0033 20.6503 26.2208 20.904 26.3538 21.2061C26.4746 21.5082 26.5471 21.8103 26.5471 22.1486Z" stroke="#F0F0F0" stroke-width="2" stroke-miterlimit="10"/>
<path opacity="0.4" d="M22.3542 10.8752C22.3542 10.1502 21.7862 9.0385 20.9404 8.13225C20.1671 7.2985 19.14 6.646 18.125 6.646" stroke="#F0F0F0" stroke-width="2" stroke-linecap="round" stroke-linejoin="round"/>
<path opacity="0.4" d="M26.5833 10.8748C26.5833 6.19859 22.8012 2.4165 18.125 2.4165" stroke="#F0F0F0" stroke-width="2" stroke-linecap="round" stroke-linejoin="round"/>
</svg>
