<svg width="238" height="240" viewBox="0 0 238 240" fill="none" xmlns="http://www.w3.org/2000/svg">
<path d="M119 120L163.625 75" stroke="#0D205A" stroke-width="10" stroke-miterlimit="10" stroke-linecap="round" stroke-linejoin="round"/>
<path d="M223.125 45H193.375V15L163.625 45V75H193.375L223.125 45Z" stroke="#0D205A" stroke-width="10" stroke-miterlimit="10" stroke-linecap="round" stroke-linejoin="round"/>
<path d="M119 165C143.646 165 163.625 144.853 163.625 120C163.625 95.1472 143.646 75 119 75C94.3543 75 74.375 95.1472 74.375 120C74.375 144.853 94.3543 165 119 165Z" stroke="#0D205A" stroke-width="10" stroke-miterlimit="10" stroke-linecap="round" stroke-linejoin="round"/>
<path d="M200.812 67.5C210.481 82.5 215.688 100.5 215.688 120C215.688 174 172.55 217.5 119 217.5C65.45 217.5 22.3125 174 22.3125 120C22.3125 66 65.45 22.5 119 22.5C138.337 22.5 156.188 27.75 171.062 37.5" stroke="#0D205A" stroke-width="10" stroke-miterlimit="10" stroke-linecap="round" stroke-linejoin="round"/>
</svg>
