<svg width="50" height="50" viewBox="0 0 50 50" fill="none" xmlns="http://www.w3.org/2000/svg">
<path d="M15.0977 28.5535H20.249L17.8564 36.034H11.0254C10.6689 36.034 10.376 35.741 10.376 35.3846C10.376 35.2576 10.415 35.1356 10.4834 35.0281L14.5557 28.8416C14.6777 28.6658 14.8828 28.5535 15.0977 28.5535Z" fill="#F0F0F0"/>
<path d="M19.751 38.6365H11.0254C9.2334 38.6365 7.77832 37.1815 7.77832 35.3895C7.77832 34.7547 7.96387 34.1346 8.31543 33.6024L12.3877 27.4158C12.9883 26.5027 14.0039 25.9559 15.0977 25.9559H23.8086L19.751 38.6365ZM15.0977 28.5535C14.8779 28.5535 14.6777 28.661 14.5557 28.8465L10.4834 35.033C10.415 35.1404 10.376 35.2625 10.376 35.3895C10.376 35.7459 10.6689 36.0389 11.0254 36.0389H17.8564L20.249 28.5584H15.0977V28.5535Z" fill="#0D205A"/>
<path d="M22.1973 28.5535H27.5488L28.7842 36.0389H20.9619L22.1973 28.5535Z" fill="#F0F0F0"/>
<path d="M31.8457 38.6365H17.9004L19.9902 25.9608H29.7559L31.8457 38.6365ZM20.9619 36.0389H28.7842L27.5488 28.5535H22.1973L20.9619 36.0389Z" fill="#0D205A"/>
<path d="M30.2051 28.5535H35.3564C35.5762 28.5535 35.7764 28.6609 35.8984 28.8465L39.9756 35.033C40.1709 35.3309 40.0879 35.7361 39.79 35.9315C39.6826 35.9998 39.5605 36.0389 39.4336 36.0389H32.6025L30.2051 28.5535Z" fill="#F0F0F0"/>
<path d="M39.4336 38.6365H30.708L26.6504 25.9559H35.3613C36.4551 25.9559 37.4707 26.5027 38.0713 27.4158L42.1436 33.6024C42.6221 34.325 42.7881 35.1942 42.6123 36.0438C42.4365 36.8934 41.9434 37.6209 41.2158 38.0994C40.6885 38.451 40.0684 38.6365 39.4336 38.6365ZM32.6025 36.0389H39.4336C39.5605 36.0389 39.6826 35.9998 39.79 35.9315C39.9854 35.8045 40.0488 35.619 40.0684 35.5213C40.0879 35.4236 40.1025 35.2283 39.9756 35.033L35.9033 28.8514C35.7812 28.6658 35.5811 28.5584 35.3613 28.5584H30.2051L32.6025 36.0389Z" fill="#0D205A"/>
<path d="M26.0791 31.2354C31.8603 26.2402 34.751 21.7676 34.751 17.8223C34.751 11.6211 29.7363 7.46582 25.2295 7.46582C20.7227 7.46582 15.708 11.6211 15.708 17.8223C15.708 21.7676 18.5986 26.2354 24.3848 31.2354C24.8682 31.6553 25.5908 31.6553 26.0791 31.2354Z" fill="#547EFF"/>
<path d="M25.2295 32.8467C24.6191 32.8467 24.0137 32.6367 23.5303 32.2168C17.3926 26.9141 14.4092 22.2021 14.4092 17.8223C14.4092 10.8496 20.0049 6.16699 25.2295 6.16699C30.4541 6.16699 36.0498 10.8496 36.0498 17.8223C36.0498 22.2021 33.0664 26.9141 26.9238 32.2168C26.4453 32.6367 25.835 32.8467 25.2295 32.8467ZM25.2295 8.76465C21.3379 8.76465 17.0068 12.4854 17.0068 17.8223C17.0068 21.3525 19.7754 25.5371 25.2295 30.2539C30.6885 25.5371 33.4521 21.3525 33.4521 17.8223C33.4521 12.4854 29.1211 8.76465 25.2295 8.76465Z" fill="#0D205A"/>
<path d="M20.4688 16.9922C20.4688 18.2548 20.9703 19.4657 21.8631 20.3585C22.756 21.2514 23.9669 21.7529 25.2295 21.7529C26.4921 21.7529 27.703 21.2514 28.5958 20.3585C29.4887 19.4657 29.9902 18.2548 29.9902 16.9922C29.9902 15.7296 29.4887 14.5186 28.5958 13.6258C27.703 12.733 26.4921 12.2314 25.2295 12.2314C23.9669 12.2314 22.756 12.733 21.8631 13.6258C20.9703 14.5186 20.4688 15.7296 20.4688 16.9922Z" fill="#F0F0F0"/>
<path d="M25.2295 23.0518C21.8896 23.0518 19.1699 20.332 19.1699 16.9922C19.1699 13.6523 21.8896 10.9326 25.2295 10.9326C28.5693 10.9326 31.2891 13.6475 31.2891 16.9922C31.2891 20.3369 28.5693 23.0518 25.2295 23.0518ZM25.2295 13.5254C23.3203 13.5254 21.7676 15.0781 21.7676 16.9873C21.7676 18.8965 23.3203 20.4492 25.2295 20.4492C27.1387 20.4492 28.6914 18.8965 28.6914 16.9873C28.6914 15.0781 27.1387 13.5254 25.2295 13.5254Z" fill="#0D205A"/>
</svg>
