<svg width="29" height="30" viewBox="0 0 29 30" fill="none" xmlns="http://www.w3.org/2000/svg">
<g clip-path="url(#clip0_2_161)">
<path d="M15.6432 21.25H4.45215L11.6138 13.7962L14.4121 16.0375L17.2105 13.795L19.1357 15.7987C19.5203 15.5867 19.9243 15.415 20.3415 15.2863L18.1701 13.0262L25.2212 7.375V15.775C25.6481 15.9959 26.0508 16.2641 26.4223 16.575V6.875C26.421 6.37812 26.2308 5.90198 25.8932 5.55063C25.5556 5.19929 25.0981 5.00132 24.6207 5H4.20354C3.72614 5.00132 3.26865 5.19929 2.93108 5.55063C2.5935 5.90198 2.40329 6.37812 2.40202 6.875V20.625C2.40202 21.1223 2.59183 21.5992 2.92968 21.9508C3.26753 22.3025 3.72575 22.5 4.20354 22.5H15.6432C15.6252 22.2938 15.6132 22.0863 15.6132 21.875C15.6132 21.6637 15.6252 21.4562 15.6432 21.25ZM3.60304 20.3662V7.37625L10.6542 13.0262L3.60304 20.3662ZM24.6207 6.25C24.6316 6.25 24.64 6.25625 24.6508 6.25625L14.4121 14.4625L4.17352 6.25625C4.18432 6.25625 4.19273 6.25 4.20354 6.25H24.6207ZM22.2187 16.25C20.7858 16.2517 19.4121 16.8448 18.3989 17.8994C17.3857 18.9539 16.8158 20.3837 16.8142 21.875C16.8227 22.0844 16.8428 22.293 16.8742 22.5C17.0189 23.8714 17.6438 25.1393 18.6296 26.0616C19.6155 26.9839 20.8932 27.4959 22.2187 27.5H22.8192V26.25H22.2187C21.2105 26.2471 20.2369 25.8665 19.4761 25.178C18.7153 24.4894 18.218 23.5388 18.0752 22.5C18.0407 22.2935 18.0206 22.0846 18.0152 21.875C18.0146 21.0136 18.2585 20.1713 18.7163 19.4536C19.1741 18.736 19.8253 18.1751 20.5882 17.8413C21.3512 17.5075 22.1919 17.4156 23.0048 17.5773C23.8177 17.739 24.5666 18.1469 25.1576 18.75H24.0202V19.3912C23.5035 18.9778 22.8705 18.7525 22.2187 18.75C21.7266 18.7485 21.2416 18.873 20.8065 19.1125C20.3715 19.352 19.9996 19.6991 19.7238 20.1232C19.4479 20.5474 19.2764 21.0357 19.2244 21.5451C19.1725 22.0544 19.2416 22.5693 19.4258 23.0443C19.6099 23.5193 19.9035 23.9399 20.2805 24.2691C20.6576 24.5984 21.1066 24.826 21.5881 24.9322C22.0696 25.0383 22.5687 25.0196 23.0416 24.8778C23.5145 24.7359 23.9467 24.4753 24.3001 24.1187C24.5069 24.4638 24.8162 24.7293 25.181 24.875C25.5458 25.0208 25.9463 25.0389 26.3218 24.9266C26.6974 24.8143 27.0276 24.5777 27.2624 24.2526C27.4972 23.9275 27.6239 23.5317 27.6233 23.125V21.875C27.6061 20.3887 27.0312 18.9683 26.0214 17.9173C25.0115 16.8662 23.6468 16.2678 22.2187 16.25ZM22.2187 23.75C21.8474 23.7488 21.4855 23.628 21.1827 23.4042C20.88 23.1803 20.6511 22.8645 20.5277 22.5C20.4566 22.2998 20.4192 22.0884 20.4172 21.875C20.4172 21.3777 20.607 20.9008 20.9449 20.5492C21.2827 20.1975 21.7409 20 22.2187 20C22.6965 20 23.1547 20.1975 23.4926 20.5492C23.8304 20.9008 24.0202 21.3777 24.0202 21.875C24.0182 22.0884 23.9809 22.2998 23.9097 22.5C23.7863 22.8645 23.5575 23.1803 23.2547 23.4042C22.952 23.628 22.5901 23.7488 22.2187 23.75ZM26.4223 23.125C26.4223 23.2908 26.359 23.4497 26.2464 23.5669C26.1338 23.6842 25.981 23.75 25.8218 23.75C25.6625 23.75 25.5098 23.6842 25.3971 23.5669C25.2845 23.4497 25.2212 23.2908 25.2212 23.125V18.8163C25.9758 19.6431 26.4045 20.7348 26.4223 21.875V23.125Z" fill="#0D205A"/>
</g>
<defs>
<clipPath id="clip0_2_161">
<rect width="28.8243" height="30" fill="white"/>
</clipPath>
</defs>
</svg>
