<svg width="227" height="227" viewBox="0 0 227 227" fill="none" xmlns="http://www.w3.org/2000/svg">
<path d="M87.1822 145.564L76.5416 150.139C72.9592 151.664 68.9158 151.664 65.3689 150.139L54.7283 145.564C49.5144 143.329 46.1448 138.186 46.1448 132.511V113.5C46.1448 101.76 55.6859 92.2188 67.4261 92.2188H74.5198C86.26 92.2188 95.8011 101.76 95.8011 113.5V132.511C95.8011 138.186 92.4316 143.329 87.2176 145.564H87.1822Z" fill="#DDA15E"/>
<path d="M117.543 166.703C111.088 160.141 102.115 156.062 92.2188 156.062H81.5781C81.5781 161.95 76.8253 166.703 70.9375 166.703C65.0497 166.703 60.2969 161.95 60.2969 156.062H49.6563C30.0775 156.062 14.1875 171.953 14.1875 191.531V216.359H92.2188L106.406 166.703H117.543Z" fill="#0D205A"/>
<path d="M53.2031 202.172H60.2969C64.1984 202.172 67.3906 205.364 67.3906 209.266V216.359H53.2031V202.172Z" fill="#DDA15E"/>
<path d="M35.4687 119.636C34.4402 120.239 33.1987 120.594 31.9219 120.594C28.0203 120.594 24.8281 117.402 24.8281 113.5C24.8281 109.598 28.0203 106.406 31.9219 106.406C33.4116 106.406 34.7948 106.867 35.9653 107.683" fill="#0D205A"/>
<path d="M106.406 119.636C107.435 120.239 108.676 120.594 109.953 120.594C113.855 120.594 117.047 117.402 117.047 113.5C117.047 109.598 113.855 106.406 109.953 106.406C108.463 106.406 107.08 106.867 105.91 107.683" fill="#0D205A"/>
<path d="M60.2969 147.94L65.3334 150.104C68.9158 151.664 72.9592 151.664 76.5416 150.104L81.5781 147.94V156.062C81.5781 161.95 76.8253 166.703 70.9375 166.703C65.0497 166.703 60.2969 161.95 60.2969 156.062V147.94Z" fill="#BC6C25"/>
<path d="M92.2188 216.359L106.406 166.703H184.438L170.25 216.359" fill="#8B8C89"/>
<path d="M93.602 104.207C91.5803 103.391 89.2394 102.859 86.2955 102.859C70.9375 102.859 70.9375 117.047 55.5441 117.047C51.5361 117.047 48.5567 116.089 46.1094 114.67V113.5C46.1094 101.76 55.6505 92.2188 67.3906 92.2188H74.4844C82.8905 92.2188 90.1616 97.1134 93.602 104.207Z" fill="#0D205A"/>
<path d="M95.7656 129.816V113.5C95.7656 101.76 86.2245 92.2187 74.4844 92.2187H67.3906C55.6505 92.2187 46.1094 101.76 46.1094 113.5V127.687H39.0156C37.0648 127.687 35.4688 126.091 35.4688 124.141V113.5C35.4688 93.9212 51.3588 78.0312 70.9375 78.0312C80.7269 78.0312 89.5941 82.0038 96.0139 88.4236C102.434 94.8434 106.406 103.711 106.406 113.5V124.779C106.406 126.482 105.2 127.936 103.569 128.255L95.7656 129.816Z" fill="#E7ECEF"/>
<path d="M138.328 187.984C140.279 187.984 141.875 189.58 141.875 191.531C141.875 193.482 140.279 195.078 138.328 195.078V187.984Z" fill="#A3CEF1"/>
<path d="M70.9375 134.781C70.5473 132.866 71.7888 130.986 73.7041 130.596L102.859 124.779V114.635C102.859 97.6455 90.0552 82.7841 73.1366 81.6491C54.5509 80.4077 39.0156 95.1626 39.0156 113.5V124.141H46.1094V131.234H39.0156C35.1141 131.234 31.9219 128.042 31.9219 124.141V114.635C31.9219 94.3469 46.9606 76.5416 67.1778 74.6617C90.3744 72.4626 109.953 90.7291 109.953 113.5V124.779C109.953 128.149 107.577 131.057 104.243 131.731L75.0873 137.548C73.172 137.938 71.2922 136.697 70.902 134.781H70.9375Z" fill="#547EFF"/>
<path d="M70.9375 216.359H63.8438V209.265C63.8438 207.315 62.2477 205.719 60.2969 205.719H35.4688C33.518 205.719 31.9219 204.123 31.9219 202.172V187.984C31.9219 187.027 32.312 186.14 32.9505 185.466L37.5259 180.89C38.9092 179.507 41.1437 179.507 42.527 180.89C43.9103 182.274 43.9103 184.508 42.527 185.892L38.9802 189.438V198.625H60.2614C66.1492 198.625 70.902 203.378 70.902 209.265V216.359H70.9375Z" fill="#547EFF"/>
<path d="M184.438 212.812H7.09375V219.906H184.438V212.812Z" fill="#A3CEF1"/>
<path d="M163.156 117.047C192.54 117.047 216.359 93.227 216.359 63.8438C216.359 34.4605 192.54 10.6406 163.156 10.6406C133.773 10.6406 109.953 34.4605 109.953 63.8438C109.953 93.227 133.773 117.047 163.156 117.047Z" fill="#0D205A"/>
<path d="M163.156 117.047C178.827 117.047 191.531 93.227 191.531 63.8438C191.531 34.4605 178.827 10.6406 163.156 10.6406C147.485 10.6406 134.781 34.4605 134.781 63.8438C134.781 93.227 147.485 117.047 163.156 117.047Z" fill="#A3CEF1"/>
<path d="M163.156 81.5781C192.54 81.5781 216.359 73.6382 216.359 63.8438C216.359 54.0493 192.54 46.1094 163.156 46.1094C133.773 46.1094 109.953 54.0493 109.953 63.8438C109.953 73.6382 133.773 81.5781 163.156 81.5781Z" fill="#547EFF"/>
<path d="M163.156 7.09375C131.873 7.09375 106.406 32.5603 106.406 63.8438C106.406 95.1272 131.873 120.594 163.156 120.594C194.44 120.594 219.906 95.1272 219.906 63.8438C219.906 32.5603 194.44 7.09375 163.156 7.09375ZM138.328 63.8438C138.328 59.623 138.647 55.5441 139.144 51.6425C145.103 50.5784 151.984 49.9045 159.609 49.7272V77.9958C151.984 77.8184 145.103 77.1445 139.144 76.0805C138.612 72.1434 138.328 68.0645 138.328 63.8792V63.8438ZM131.802 74.4844C120.204 71.505 113.5 67.2487 113.5 63.8438C113.5 60.4388 120.204 56.1825 131.802 53.2031C131.447 56.6436 131.234 60.1905 131.234 63.8438C131.234 67.497 131.447 71.0439 131.802 74.4844ZM166.703 14.7905C175.216 17.3442 182.451 28.8716 185.892 44.2295C179.791 43.3073 173.3 42.7753 166.703 42.6334V14.7905ZM159.609 14.7905V42.6334C153.048 42.7753 146.557 43.3073 140.421 44.2295C143.826 28.8361 151.097 17.3442 159.609 14.7905ZM159.609 85.0895V112.933C151.097 110.379 143.861 98.8514 140.421 83.4934C146.521 84.4156 153.012 84.9477 159.609 85.0895ZM166.703 112.933V85.0895C173.265 84.9477 179.756 84.4156 185.892 83.4934C182.487 98.8869 175.216 110.379 166.703 112.933ZM166.703 77.9958V49.7272C174.329 49.9045 181.21 50.5784 187.169 51.6425C187.701 55.5795 187.984 59.6584 187.984 63.8438C187.984 68.0291 187.665 72.1434 187.169 76.045C181.21 77.1091 174.329 77.783 166.703 77.9603V77.9958ZM194.511 53.2386C206.109 56.218 212.812 60.4742 212.812 63.8792C212.812 67.2842 206.109 71.5405 194.511 74.5198C194.865 71.0794 195.078 67.5325 195.078 63.8792C195.078 60.2259 194.865 56.6791 194.511 53.2386ZM211.358 52.1391C206.747 49.3725 200.54 47.2089 193.447 45.6483C191.354 34.3692 187.381 24.7927 182.132 18.0181C196.603 24.0123 207.599 36.6747 211.358 52.1391ZM144.216 17.9827C138.967 24.7927 134.994 34.3337 132.901 45.6128C125.772 47.1734 119.601 49.3725 114.99 52.1036C118.749 36.6392 129.745 23.9769 144.216 17.9827ZM114.99 75.6194C119.601 78.3859 125.808 80.5495 132.901 82.1102C134.994 93.3892 138.967 102.966 144.216 109.74C129.745 103.746 118.749 91.0837 114.99 75.6194ZM182.132 109.74C187.381 102.93 191.354 93.3892 193.447 82.1102C200.576 80.5495 206.747 78.3505 211.358 75.6194C207.599 91.0837 196.603 103.746 182.132 109.74Z" fill="#C7F9CC"/>
<path d="M166.703 127.688H159.609V134.781H166.703V127.688Z" fill="#547EFF"/>
<path d="M156.062 141.875H148.969V148.969H156.062V141.875Z" fill="#547EFF"/>
<path d="M141.875 148.969H134.781V156.062H141.875V148.969Z" fill="#547EFF"/>
</svg>
