<svg width="227" height="227" viewBox="0 0 227 227" fill="none" xmlns="http://www.w3.org/2000/svg">
<path d="M121.09 163.156C114.635 156.595 105.661 152.516 95.7656 152.516H85.125V144.393L90.7291 142.017C95.943 139.782 99.3125 134.639 99.3125 128.964V126.269L107.116 124.708C108.747 124.389 109.953 122.935 109.953 121.232V116.089C110.982 116.692 112.223 117.047 113.5 117.047C117.402 117.047 120.594 113.855 120.594 109.953C120.594 106.052 117.402 102.859 113.5 102.859C112.01 102.859 110.627 103.32 109.457 104.136C108.925 100.731 107.86 97.5036 106.406 94.5242V7.09375H202.172L219.906 21.2812V184.438H181.919L187.984 163.156H121.09Z" fill="#A3CEF1"/>
<path d="M166.703 49.6562H159.609V70.9375H166.703V49.6562Z" fill="#0D205A"/>
<path d="M187.984 78.0312H173.797V85.125H187.984V78.0312Z" fill="#0D205A"/>
<path d="M152.516 78.0312H138.328V85.125H152.516V78.0312Z" fill="#0D205A"/>
<path d="M178.372 112.471L163.156 97.2551L147.94 112.471L142.939 107.47L160.673 89.7357C162.057 88.3524 164.291 88.3524 165.675 89.7357L183.409 107.47L178.408 112.471H178.372Z" fill="#0D205A"/>
<path d="M90.7291 142.017L80.0884 146.592C76.5061 148.118 72.4626 148.118 68.9158 146.592L58.2751 142.017C53.0612 139.782 49.6917 134.639 49.6917 128.964V109.953C49.6917 98.213 59.2328 88.6719 70.973 88.6719H78.0667C89.8069 88.6719 99.348 98.213 99.348 109.953V128.964C99.348 134.639 95.9784 139.782 90.7645 142.017H90.7291Z" fill="#DDA15E"/>
<path d="M121.09 163.156C114.635 156.595 105.661 152.516 95.7656 152.516H85.125C85.125 158.403 80.3722 163.156 74.4844 163.156C68.5966 163.156 63.8438 158.403 63.8438 152.516H53.2031C33.6244 152.516 17.7344 168.406 17.7344 187.984V212.812H95.7656L109.953 163.156H121.09Z" fill="#0D205A"/>
<path d="M56.75 198.625H63.8438C67.7453 198.625 70.9375 201.817 70.9375 205.719V212.812H56.75V198.625Z" fill="#DDA15E"/>
<path d="M39.0156 116.089C37.987 116.692 36.7456 117.047 35.4687 117.047C31.5672 117.047 28.375 113.855 28.375 109.953C28.375 106.052 31.5672 102.859 35.4687 102.859C36.9584 102.859 38.3417 103.32 39.5122 104.136" fill="#0D205A"/>
<path d="M109.953 116.089C110.982 116.692 112.223 117.047 113.5 117.047C117.402 117.047 120.594 113.855 120.594 109.953C120.594 106.052 117.402 102.859 113.5 102.859C112.01 102.859 110.627 103.32 109.457 104.136" fill="#0D205A"/>
<path d="M63.8438 144.393L68.8803 146.557C72.4627 148.117 76.5061 148.117 80.0884 146.557L85.125 144.393V152.515C85.125 158.403 80.3722 163.156 74.4844 163.156C68.5966 163.156 63.8438 158.403 63.8438 152.515V144.393Z" fill="#BC6C25"/>
<path d="M95.7656 212.812L109.953 163.156H187.984L173.797 212.812" fill="#8B8C89"/>
<path d="M97.1489 100.66C95.1272 99.8445 92.7863 99.3125 89.8424 99.3125C74.4844 99.3125 74.4844 113.5 59.0909 113.5C55.083 113.5 52.1036 112.542 49.6562 111.124V109.953C49.6562 98.213 59.1973 88.6719 70.9375 88.6719H78.0313C86.4373 88.6719 93.7084 93.5666 97.1489 100.66Z" fill="#0D205A"/>
<path d="M99.3125 126.269V109.953C99.3125 98.213 89.7714 88.6719 78.0312 88.6719H70.9375C59.1973 88.6719 49.6562 98.213 49.6562 109.953V124.141H42.5625C40.6117 124.141 39.0156 122.545 39.0156 120.594V109.953C39.0156 90.3744 54.9056 74.4844 74.4844 74.4844C84.2738 74.4844 93.1409 78.4569 99.5608 84.8767C105.981 91.2966 109.953 100.164 109.953 109.953V121.232C109.953 122.935 108.747 124.389 107.116 124.708L99.3125 126.269Z" fill="#E7ECEF"/>
<path d="M141.875 184.438C143.826 184.438 145.422 186.034 145.422 187.984C145.422 189.935 143.826 191.531 141.875 191.531V184.438Z" fill="#A3CEF1"/>
<path d="M74.4844 212.812H67.3906V205.719C67.3906 203.768 65.7945 202.172 63.8438 202.172H39.0156C37.0648 202.172 35.4688 200.576 35.4688 198.625V184.437C35.4688 183.48 35.8589 182.593 36.4973 181.919L41.0728 177.344C42.4561 175.96 44.6906 175.96 46.0739 177.344C47.4572 178.727 47.4572 180.961 46.0739 182.345L42.527 185.892V195.078H63.8083C69.6961 195.078 74.4489 199.831 74.4489 205.719V212.812H74.4844Z" fill="#547EFF"/>
<path d="M184.438 212.812H7.09375V219.906H184.438V212.812Z" fill="#A3CEF1"/>
<path d="M74.4844 131.234C74.0942 129.319 75.3356 127.439 77.2509 127.049L106.406 121.232V111.088C106.406 94.0986 93.602 79.2372 76.6834 78.1022C58.0978 76.8608 42.5625 91.6158 42.5625 109.953V120.594H49.6562V127.687H42.5625C38.6609 127.687 35.4688 124.495 35.4688 120.594V111.088C35.4688 90.8 50.5075 72.9947 70.7247 71.1148C93.9213 68.9158 113.5 87.1822 113.5 109.953V121.232C113.5 124.602 111.124 127.51 107.79 128.184L78.6342 134.001C76.7189 134.391 74.8391 133.15 74.4489 131.234H74.4844Z" fill="#547EFF"/>
<path d="M177.344 21.2812H148.969V49.6562H177.344V21.2812Z" fill="#F5DD90"/>
<path d="M127.688 92.2188C133.564 92.2188 138.328 87.4548 138.328 81.5781C138.328 75.7015 133.564 70.9375 127.688 70.9375C121.811 70.9375 117.047 75.7015 117.047 81.5781C117.047 87.4548 121.811 92.2188 127.688 92.2188Z" fill="#0D205A"/>
<path d="M163.156 92.2188C169.033 92.2188 173.797 87.4548 173.797 81.5781C173.797 75.7015 169.033 70.9375 163.156 70.9375C157.28 70.9375 152.516 75.7015 152.516 81.5781C152.516 87.4548 157.28 92.2188 163.156 92.2188Z" fill="#547EFF"/>
<path d="M198.625 92.2188C204.502 92.2188 209.266 87.4548 209.266 81.5781C209.266 75.7015 204.502 70.9375 198.625 70.9375C192.748 70.9375 187.984 75.7015 187.984 81.5781C187.984 87.4548 192.748 92.2188 198.625 92.2188Z" fill="#0D205A"/>
<path d="M145.422 131.234C151.299 131.234 156.062 126.47 156.062 120.594C156.062 114.717 151.299 109.953 145.422 109.953C139.545 109.953 134.781 114.717 134.781 120.594C134.781 126.47 139.545 131.234 145.422 131.234Z" fill="#0D205A"/>
<path d="M180.891 131.234C186.767 131.234 191.531 126.47 191.531 120.594C191.531 114.717 186.767 109.953 180.891 109.953C175.014 109.953 170.25 114.717 170.25 120.594C170.25 126.47 175.014 131.234 180.891 131.234Z" fill="#0D205A"/>
<path d="M127.688 95.7656C119.849 95.7656 113.5 89.4167 113.5 81.5781C113.5 73.7395 119.849 67.3906 127.688 67.3906C135.526 67.3906 141.875 73.7395 141.875 81.5781C141.875 89.4167 135.526 95.7656 127.688 95.7656ZM127.688 74.4844C123.786 74.4844 120.594 77.6766 120.594 81.5781C120.594 85.4797 123.786 88.6719 127.688 88.6719C131.589 88.6719 134.781 85.4797 134.781 81.5781C134.781 77.6766 131.589 74.4844 127.688 74.4844Z" fill="#F5DD90"/>
<path d="M163.156 95.7656C155.318 95.7656 148.969 89.4167 148.969 81.5781C148.969 73.7395 155.318 67.3906 163.156 67.3906C170.995 67.3906 177.344 73.7395 177.344 81.5781C177.344 89.4167 170.995 95.7656 163.156 95.7656ZM163.156 74.4844C159.255 74.4844 156.062 77.6766 156.062 81.5781C156.062 85.4797 159.255 88.6719 163.156 88.6719C167.058 88.6719 170.25 85.4797 170.25 81.5781C170.25 77.6766 167.058 74.4844 163.156 74.4844Z" fill="#F5DD90"/>
<path d="M198.625 95.7656C190.786 95.7656 184.438 89.4167 184.438 81.5781C184.438 73.7395 190.786 67.3906 198.625 67.3906C206.464 67.3906 212.812 73.7395 212.812 81.5781C212.812 89.4167 206.464 95.7656 198.625 95.7656ZM198.625 74.4844C194.723 74.4844 191.531 77.6766 191.531 81.5781C191.531 85.4797 194.723 88.6719 198.625 88.6719C202.527 88.6719 205.719 85.4797 205.719 81.5781C205.719 77.6766 202.527 74.4844 198.625 74.4844Z" fill="#F5DD90"/>
<path d="M145.422 134.781C137.583 134.781 131.234 128.432 131.234 120.594C131.234 112.755 137.583 106.406 145.422 106.406C153.26 106.406 159.609 112.755 159.609 120.594C159.609 128.432 153.26 134.781 145.422 134.781ZM145.422 113.5C141.52 113.5 138.328 116.692 138.328 120.594C138.328 124.495 141.52 127.688 145.422 127.688C149.323 127.688 152.516 124.495 152.516 120.594C152.516 116.692 149.323 113.5 145.422 113.5Z" fill="#F5DD90"/>
<path d="M180.891 134.781C173.052 134.781 166.703 128.432 166.703 120.594C166.703 112.755 173.052 106.406 180.891 106.406C188.729 106.406 195.078 112.755 195.078 120.594C195.078 128.432 188.729 134.781 180.891 134.781ZM180.891 113.5C176.989 113.5 173.797 116.692 173.797 120.594C173.797 124.495 176.989 127.688 180.891 127.688C184.792 127.688 187.984 124.495 187.984 120.594C187.984 116.692 184.792 113.5 180.891 113.5Z" fill="#F5DD90"/>
</svg>
