<svg width="220" height="220" viewBox="0 0 220 220" fill="none" xmlns="http://www.w3.org/2000/svg">
<g clip-path="url(#clip0_11_170)">
<path d="M102.406 167.342L102.803 167.581L103.203 167.348L124.399 154.983L128.02 156.904V219.219H91.9803V161.049L102.406 167.342Z" fill="#0D205A" stroke="#0D205A" stroke-width="1.5625"/>
<path d="M172.809 180.67V219.219H136.773V161.55L172.809 180.67Z" fill="#0D205A" stroke="#0D205A" stroke-width="1.5625"/>
<path d="M211.682 219.219H181.562V185.316L211.682 201.297V219.219Z" fill="#0D205A" stroke="#0D205A" stroke-width="1.5625"/>
<path d="M83.2274 155.763V219.219H47.1914V134.004L83.2274 155.763Z" fill="#0D205A" stroke="#0D205A" stroke-width="1.5625"/>
<path d="M7.53714 220H39.2197V128.277L7.53714 109.15V220Z" fill="#0D205A"/>
<path d="M98.1084 33.3053C107.286 32.4519 114.037 24.3171 113.181 15.1398C112.331 5.96897 104.2 -0.779273 95.0189 0.070649C85.8481 0.920571 79.0969 9.05198 79.9498 18.2327C80.7997 27.4069 88.9277 34.1548 98.1084 33.3053Z" fill="#0D205A"/>
<path d="M154.687 133.589L146.717 107.359C146.391 107.928 146.061 108.497 145.685 109.037C142.037 114.283 136.3 117.633 129.939 118.219L127.007 118.419L135.363 138.684C137.136 141.619 139.327 144.28 141.869 146.587L163.598 166.318C166.663 168.983 171.297 168.731 174.06 165.746L174.257 165.542C177.01 162.565 176.911 157.945 174.043 155.087L154.687 133.589Z" fill="#0D205A"/>
<path d="M99.397 52.9959L104.958 55.2286L106.608 49.1477L103.174 43.3026L96.62 48.2599L99.397 52.9959Z" fill="#0D205A"/>
<path d="M97.1077 150.649L97.4029 150.578C101.342 149.602 103.838 145.734 103.098 141.752L98.3121 116.073L129.875 113.882C134.405 113.566 138.554 111.214 141.145 107.485C143.74 103.749 144.495 99.0446 143.214 94.6846L142.027 90.6645L132.158 54.7159L149.077 55.6286L162.601 68.6576C161.947 69.4546 161.621 70.4975 161.884 71.5786L162.99 76.0551L155.126 77.9968C153.265 78.4497 152.131 80.3318 152.591 82.1923L157.885 103.676C158.348 105.54 160.227 106.674 162.085 106.221L195.452 97.9919C197.317 97.5283 198.451 95.6462 197.991 93.7823L192.693 72.3026C192.237 70.4455 190.355 69.3043 188.494 69.7571L180.629 71.6985L179.527 67.2289C179.077 65.4139 177.241 64.3044 175.423 64.7504L174.601 64.9541C174.415 64.1923 174.078 63.4549 173.572 62.7949L160.343 45.4476C158.918 43.5797 156.885 42.2636 154.599 41.7329L132.842 33.9457C125.479 31.3126 117.352 32.4186 110.934 36.7894L109.048 63.5636L91.7181 51.4301L79.6232 60.7096L60.0497 53.6456C56.9813 52.2869 53.3964 53.5932 51.929 56.6053L51.7254 57.0195C51.0022 58.5152 50.8965 60.2318 51.4443 61.7942C51.9883 63.3634 53.1403 64.6452 54.6425 65.3683L78.2358 76.6313C81.171 78.0355 84.587 78.0218 87.5119 76.5961L100.091 68.2296L108.721 92.9744L87.8419 94.8036C84.3279 95.1229 81.1289 96.9942 79.1381 99.9083C77.1512 102.822 76.5716 106.477 77.5547 109.872L87.933 145.364C89.0854 149.304 93.1266 151.628 97.1077 150.649ZM176.205 67.9172L176.364 68.0083L177.466 72.4814L166.158 75.2722L165.087 70.9366C167.186 72.6571 170.185 72.7869 172.365 71.1016L172.492 71.0067C173.404 70.3007 174.044 69.3739 174.408 68.3632L176.205 67.9172ZM118.237 85.1107C118.342 86.252 117.51 87.2489 116.372 87.361C115.238 87.4594 114.234 86.6305 114.122 85.4932C114.02 84.3519 114.852 83.3482 115.993 83.2463C117.123 83.1406 118.131 83.9695 118.237 85.1107ZM112.732 71.9339C113.862 71.8287 114.87 72.6575 114.975 73.7949C115.081 74.9362 114.245 75.9438 113.111 76.0456C111.977 76.1475 110.969 75.3186 110.868 74.1812C110.758 73.0434 111.594 72.0392 112.732 71.9339Z" fill="#0D205A"/>
</g>
<defs>
<clipPath id="clip0_11_170">
<rect width="220" height="220" fill="white"/>
</clipPath>
</defs>
</svg>
