<svg width="227" height="227" viewBox="0 0 227 227" fill="none" xmlns="http://www.w3.org/2000/svg">
<path d="M166.703 109.953C192.169 109.953 212.812 89.3093 212.812 63.8438C212.812 38.3782 192.169 17.7344 166.703 17.7344C141.238 17.7344 120.594 38.3782 120.594 63.8438C120.594 89.3093 141.238 109.953 166.703 109.953Z" fill="#A3CEF1"/>
<path d="M198.625 57.9559C197.774 53.3805 196 49.1242 193.447 45.4C191.212 45.7902 188.836 45.1162 187.133 43.4137C185.431 41.7112 184.757 39.3348 185.147 37.1003C181.458 34.5466 177.202 32.7731 172.591 31.9219C171.279 33.7662 169.15 34.9722 166.703 34.9722C164.256 34.9722 162.128 33.7662 160.815 31.9219C156.24 32.7731 151.984 34.5466 148.259 37.1003C148.65 39.3348 147.976 41.7112 146.273 43.4137C144.571 45.1162 142.194 45.7902 139.96 45.4C137.406 49.0888 135.632 53.345 134.781 57.9559C136.626 59.2683 137.832 61.3964 137.832 63.8438C137.832 66.2911 136.626 68.4192 134.781 69.7316C135.632 74.307 137.406 78.5633 139.96 82.2875C142.194 81.8973 144.571 82.5713 146.273 84.2738C148.011 86.0117 148.65 88.3527 148.259 90.5872C151.948 93.1409 156.204 94.9144 160.815 95.7656C162.128 93.9212 164.256 92.7153 166.703 92.7153C169.15 92.7153 171.279 93.9212 172.591 95.7656C177.166 94.9144 181.423 93.1409 185.147 90.5872C184.757 88.3527 185.431 85.9762 187.133 84.2738C188.871 82.5358 191.212 81.8973 193.447 82.2875C196 78.5988 197.774 74.3425 198.625 69.7316C196.781 68.4192 195.575 66.2911 195.575 63.8438C195.575 61.3964 196.781 59.2683 198.625 57.9559Z" fill="#0D205A"/>
<path d="M166.703 81.5781C176.498 81.5781 184.438 73.6382 184.438 63.8438C184.438 54.0493 176.498 46.1094 166.703 46.1094C156.909 46.1094 148.969 54.0493 148.969 63.8438C148.969 73.6382 156.909 81.5781 166.703 81.5781Z" fill="#F5DD90"/>
<path d="M94.2759 134.923L83.6353 139.499C80.053 141.024 76.0095 141.024 72.4627 139.499L61.822 134.923C56.6081 132.689 53.2386 127.546 53.2386 121.871V102.859C53.2386 91.1192 62.7797 81.5781 74.5198 81.5781H81.6136C93.3537 81.5781 102.895 91.1192 102.895 102.859V121.871C102.895 127.546 99.5253 132.689 94.3114 134.923H94.2759Z" fill="#DDA15E"/>
<path d="M124.637 156.062C118.182 149.501 109.208 145.422 99.3125 145.422H88.6719C88.6719 151.31 83.9191 156.062 78.0313 156.062C72.1434 156.062 67.3906 151.31 67.3906 145.422H56.75C37.1713 145.422 21.2812 161.312 21.2812 180.891V205.719H99.3125L113.5 156.062H124.637Z" fill="#0D205A"/>
<path d="M60.2969 191.531H67.3906C71.2922 191.531 74.4844 194.723 74.4844 198.625V205.719H60.2969V191.531Z" fill="#DDA15E"/>
<path d="M42.5625 108.995C41.5339 109.598 40.2925 109.953 39.0156 109.953C35.1141 109.953 31.9219 106.761 31.9219 102.859C31.9219 98.9578 35.1141 95.7656 39.0156 95.7656C40.5053 95.7656 41.8886 96.2267 43.0591 97.0425" fill="#0D205A"/>
<path d="M113.5 108.995C114.529 109.598 115.77 109.953 117.047 109.953C120.948 109.953 124.141 106.761 124.141 102.859C124.141 98.9578 120.948 95.7656 117.047 95.7656C115.557 95.7656 114.174 96.2267 113.003 97.0425" fill="#0D205A"/>
<path d="M67.3906 137.299L72.4272 139.463C76.0095 141.024 80.053 141.024 83.6353 139.463L88.6719 137.299V145.422C88.6719 151.309 83.9191 156.062 78.0312 156.062C72.1434 156.062 67.3906 151.309 67.3906 145.422V137.299Z" fill="#BC6C25"/>
<path d="M99.3125 205.719L113.5 156.062H191.531L177.344 205.719" fill="#8B8C89"/>
<path d="M100.696 93.5666C98.6741 92.7508 96.3331 92.2188 93.3892 92.2188C78.0312 92.2188 78.0312 106.406 62.6378 106.406C58.6298 106.406 55.6505 105.449 53.2031 104.03V102.859C53.2031 91.1192 62.7442 81.5781 74.4844 81.5781H81.5781C89.9842 81.5781 97.2553 86.4728 100.696 93.5666Z" fill="#0D205A"/>
<path d="M102.859 119.175V102.859C102.859 91.1192 93.3183 81.5781 81.5781 81.5781H74.4844C62.7442 81.5781 53.2031 91.1192 53.2031 102.859V117.047H46.1094C44.1586 117.047 42.5625 115.451 42.5625 113.5V102.859C42.5625 83.2806 58.4525 67.3906 78.0312 67.3906C87.8206 67.3906 96.6878 71.3631 103.108 77.783C109.527 84.2028 113.5 93.07 113.5 102.859V114.138C113.5 115.841 112.294 117.295 110.663 117.614L102.859 119.175Z" fill="#E7ECEF"/>
<path d="M145.422 177.344C147.373 177.344 148.969 178.94 148.969 180.891C148.969 182.841 147.373 184.438 145.422 184.438V177.344Z" fill="#A3CEF1"/>
<path d="M156.133 108.747C156.098 109.137 156.062 109.563 156.062 109.953C156.062 115.841 160.815 120.594 166.703 120.594C172.591 120.594 177.344 115.841 177.344 109.953C177.344 109.563 177.308 109.137 177.273 108.747C173.868 109.527 170.356 109.953 166.703 109.953C163.05 109.953 159.538 109.527 156.133 108.747Z" fill="#547EFF"/>
<path d="M152.516 138.328C156.433 138.328 159.609 135.152 159.609 131.234C159.609 127.317 156.433 124.141 152.516 124.141C148.598 124.141 145.422 127.317 145.422 131.234C145.422 135.152 148.598 138.328 152.516 138.328Z" fill="#547EFF"/>
<path d="M134.781 152.516C138.699 152.516 141.875 149.34 141.875 145.422C141.875 141.504 138.699 138.328 134.781 138.328C130.863 138.328 127.688 141.504 127.688 145.422C127.688 149.34 130.863 152.516 134.781 152.516Z" fill="#547EFF"/>
<path d="M78.0312 124.141C77.6411 122.225 78.8825 120.345 80.7978 119.955L109.953 114.138V103.994C109.953 87.0048 97.1489 72.1434 80.2303 71.0084C61.6447 69.767 46.1094 84.522 46.1094 102.859V113.5H53.2031V120.594H46.1094C42.2078 120.594 39.0156 117.402 39.0156 113.5V103.994C39.0156 83.7062 54.0544 65.9009 74.2716 64.0211C97.4681 61.822 117.047 80.0884 117.047 102.859V114.138C117.047 117.508 114.67 120.416 111.336 121.09L82.1811 126.907C80.2658 127.297 78.3859 126.056 77.9958 124.141H78.0312Z" fill="#547EFF"/>
<path d="M78.0312 205.719H70.9375V198.625C70.9375 196.674 69.3414 195.078 67.3906 195.078H42.5625C40.6117 195.078 39.0156 193.482 39.0156 191.531V177.344C39.0156 176.386 39.4058 175.499 40.0442 174.825L44.6197 170.25C46.003 168.867 48.2375 168.867 49.6208 170.25C51.0041 171.633 51.0041 173.868 49.6208 175.251L46.0739 178.798V187.984H67.3552C73.243 187.984 77.9958 192.737 77.9958 198.625V205.719H78.0312Z" fill="#547EFF"/>
<path d="M191.531 202.172H14.1875V209.266H191.531V202.172Z" fill="#A3CEF1"/>
</svg>
