<svg width="227" height="227" viewBox="0 0 227 227" fill="none" xmlns="http://www.w3.org/2000/svg">
<path d="M166.703 106.406C192.169 106.406 212.812 85.7624 212.812 60.2969C212.812 34.8314 192.169 14.1875 166.703 14.1875C141.238 14.1875 120.594 34.8314 120.594 60.2969C120.594 85.7624 141.238 106.406 166.703 106.406Z" fill="#A3CEF1"/>
<path d="M94.2759 134.923L83.6353 139.499C80.053 141.024 76.0095 141.024 72.4626 139.499L61.822 134.923C56.6081 132.689 53.2386 127.546 53.2386 121.871V102.859C53.2386 91.1192 62.7797 81.5781 74.5198 81.5781H81.6136C93.3537 81.5781 102.895 91.1192 102.895 102.859V121.871C102.895 127.546 99.5253 132.689 94.3114 134.923H94.2759Z" fill="#DDA15E"/>
<path d="M124.637 156.062C118.182 149.501 109.208 145.422 99.3125 145.422H88.6719C88.6719 151.31 83.9191 156.062 78.0313 156.062C72.1434 156.062 67.3906 151.31 67.3906 145.422H56.75C37.1713 145.422 21.2812 161.312 21.2812 180.891V205.719H99.3125L113.5 156.062H124.637Z" fill="#0D205A"/>
<path d="M60.2969 191.531H67.3906C71.2922 191.531 74.4844 194.723 74.4844 198.625V205.719H60.2969V191.531Z" fill="#DDA15E"/>
<path d="M42.5625 108.995C41.5339 109.598 40.2925 109.953 39.0156 109.953C35.1141 109.953 31.9219 106.761 31.9219 102.859C31.9219 98.9578 35.1141 95.7656 39.0156 95.7656C40.5053 95.7656 41.8886 96.2267 43.0591 97.0425" fill="#0D205A"/>
<path d="M113.5 108.995C114.529 109.598 115.77 109.953 117.047 109.953C120.948 109.953 124.141 106.761 124.141 102.859C124.141 98.9578 120.948 95.7656 117.047 95.7656C115.557 95.7656 114.174 96.2267 113.003 97.0425" fill="#0D205A"/>
<path d="M67.3906 137.299L72.4272 139.463C76.0095 141.024 80.053 141.024 83.6353 139.463L88.6719 137.299V145.422C88.6719 151.309 83.9191 156.062 78.0312 156.062C72.1434 156.062 67.3906 151.309 67.3906 145.422V137.299Z" fill="#BC6C25"/>
<path d="M99.3125 205.719L113.5 156.062H191.531L177.344 205.719" fill="#8B8C89"/>
<path d="M100.696 93.5666C98.6741 92.7508 96.3331 92.2188 93.3892 92.2188C78.0312 92.2188 78.0312 106.406 62.6378 106.406C58.6298 106.406 55.6505 105.449 53.2031 104.03V102.859C53.2031 91.1192 62.7442 81.5781 74.4844 81.5781H81.5781C89.9842 81.5781 97.2553 86.4728 100.696 93.5666Z" fill="#0D205A"/>
<path d="M102.859 119.175V102.859C102.859 91.1192 93.3183 81.5781 81.5781 81.5781H74.4844C62.7442 81.5781 53.2031 91.1192 53.2031 102.859V117.047H46.1094C44.1586 117.047 42.5625 115.451 42.5625 113.5V102.859C42.5625 83.2806 58.4525 67.3906 78.0312 67.3906C87.8206 67.3906 96.6878 71.3631 103.108 77.783C109.527 84.2028 113.5 93.07 113.5 102.859V114.138C113.5 115.841 112.294 117.295 110.663 117.614L102.859 119.175Z" fill="#E7ECEF"/>
<path d="M145.422 177.344C147.373 177.344 148.969 178.94 148.969 180.891C148.969 182.841 147.373 184.438 145.422 184.438V177.344Z" fill="#A3CEF1"/>
<path d="M78.0312 124.141C77.6411 122.225 78.8825 120.345 80.7978 119.955L109.953 114.138V103.994C109.953 87.0048 97.1489 72.1434 80.2303 71.0084C61.6447 69.767 46.1094 84.522 46.1094 102.859V113.5H53.2031V120.594H46.1094C42.2078 120.594 39.0156 117.402 39.0156 113.5V103.994C39.0156 83.7062 54.0544 65.9009 74.2716 64.0211C97.4681 61.822 117.047 80.0884 117.047 102.859V114.138C117.047 117.508 114.67 120.416 111.336 121.09L82.1811 126.907C80.2658 127.297 78.3859 126.056 77.9958 124.141H78.0312Z" fill="#547EFF"/>
<path d="M78.0312 205.719H70.9375V198.625C70.9375 196.674 69.3414 195.078 67.3906 195.078H42.5625C40.6117 195.078 39.0156 193.482 39.0156 191.531V177.344C39.0156 176.386 39.4058 175.499 40.0442 174.825L44.6197 170.25C46.003 168.867 48.2375 168.867 49.6208 170.25C51.0041 171.633 51.0041 173.868 49.6208 175.251L46.0739 178.798V187.984H67.3552C73.243 187.984 77.9958 192.737 77.9958 198.625V205.719H78.0312Z" fill="#547EFF"/>
<path d="M191.531 205.719H14.1875V212.812H191.531V205.719Z" fill="#A3CEF1"/>
<path d="M191.531 74.4844V42.5625H184.438V74.4844H177.344V56.75H170.25V74.4844H163.156V49.6562H156.062V74.4844H148.969V63.8438H141.875V74.4844H134.781V81.5781H198.625V74.4844H191.531Z" fill="#0D205A"/>
<path d="M144.003 52.4937L139.747 46.8187L153.934 36.1781C154.998 35.3623 156.453 35.2559 157.659 35.8589L169.824 41.924L185.785 29.1553L190.219 34.6884L172.485 48.8759C171.385 49.7271 169.931 49.9045 168.689 49.2661L156.453 43.1654L144.003 52.4937Z" fill="#F76C5E"/>
<path d="M157.091 105.413C156.417 106.796 156.062 108.322 156.062 109.953C156.062 115.841 160.815 120.594 166.703 120.594C172.591 120.594 177.344 115.841 177.344 109.953C177.344 108.322 176.989 106.796 176.315 105.413C173.229 106.052 170.002 106.406 166.703 106.406C163.405 106.406 160.177 106.052 157.091 105.413Z" fill="#547EFF"/>
<path d="M156.062 138.328C159.98 138.328 163.156 135.152 163.156 131.234C163.156 127.317 159.98 124.141 156.062 124.141C152.145 124.141 148.969 127.317 148.969 131.234C148.969 135.152 152.145 138.328 156.062 138.328Z" fill="#547EFF"/>
<path d="M141.875 152.516C145.793 152.516 148.969 149.34 148.969 145.422C148.969 141.504 145.793 138.328 141.875 138.328C137.957 138.328 134.781 141.504 134.781 145.422C134.781 149.34 137.957 152.516 141.875 152.516Z" fill="#547EFF"/>
</svg>
