<svg width="238" height="240" viewBox="0 0 238 240" fill="none" xmlns="http://www.w3.org/2000/svg">
<path d="M29.0062 67.5L54.2937 82.5" stroke="#0D205A" stroke-width="10" stroke-miterlimit="10" stroke-linecap="round" stroke-linejoin="round"/>
<path d="M14.875 120H44.625" stroke="#0D205A" stroke-width="10" stroke-miterlimit="10" stroke-linecap="round" stroke-linejoin="round"/>
<path d="M29.0062 172.5L54.2937 157.5" stroke="#0D205A" stroke-width="10" stroke-miterlimit="10" stroke-linecap="round" stroke-linejoin="round"/>
<path d="M208.994 172.5L183.706 157.5" stroke="#0D205A" stroke-width="10" stroke-miterlimit="10" stroke-linecap="round" stroke-linejoin="round"/>
<path d="M223.125 120H193.375" stroke="#0D205A" stroke-width="10" stroke-miterlimit="10" stroke-linecap="round" stroke-linejoin="round"/>
<path d="M208.994 67.5L183.706 82.5" stroke="#0D205A" stroke-width="10" stroke-miterlimit="10" stroke-linecap="round" stroke-linejoin="round"/>
<path d="M163.625 105C163.625 78 140.569 57 113.794 60C94.4563 62.25 78.0938 78 75.1188 97.5C72.8875 112.5 78.0938 126 87.0188 135.75C93.7125 142.5 96.6875 152.25 96.6875 162V165H141.313V161.25C141.313 151.5 145.775 142.5 151.725 135.75C159.162 127.5 163.625 117 163.625 105Z" stroke="#0D205A" stroke-width="10" stroke-miterlimit="10" stroke-linecap="round" stroke-linejoin="round"/>
<path d="M133.875 187.5C133.875 195.75 127.181 202.5 119 202.5C110.819 202.5 104.125 195.75 104.125 187.5" stroke="#0D205A" stroke-width="10" stroke-miterlimit="10" stroke-linecap="round" stroke-linejoin="round"/>
<path d="M119 162L96.6875 99.75C110.075 109.5 127.925 109.5 141.312 99.75" stroke="#0D205A" stroke-width="10" stroke-miterlimit="10" stroke-linecap="round" stroke-linejoin="round"/>
</svg>
