<svg width="277" height="679" viewBox="0 0 277 679" fill="none" xmlns="http://www.w3.org/2000/svg">
<path opacity="0.5" fill-rule="evenodd" clip-rule="evenodd" d="M219.705 42.5152C259.46 12.1952 318.246 -9.03553 364.3 10.4271C412.096 30.6256 411.045 103.055 448.335 139.135C483.169 172.839 553.529 166.946 572.267 211.648C591.045 256.446 561.473 309.12 537.233 351.214C516.638 386.979 452.645 391.308 445.412 431.941C433.226 500.39 515.903 570.461 486.95 633.672C464.676 682.299 387.469 677.169 334.022 675.123C283.846 673.203 236.52 650.573 194.893 622.492C158.829 598.166 140.432 556.704 110.992 524.677C84.6976 496.071 48.4992 477.105 29.896 442.993C10.6282 407.662 1.69989 367.048 3.09486 326.829C4.49596 286.433 9.84319 241.356 37.8989 212.259C66.2757 182.828 122.309 200.097 152.191 172.197C188.266 138.516 180.463 72.4444 219.705 42.5152Z" stroke="#FF6701" stroke-width="5" stroke-linecap="round" stroke-dasharray="30 30"/>
</svg>
