<svg width="271" height="560" viewBox="0 0 271 560" fill="none" xmlns="http://www.w3.org/2000/svg">
<path opacity="0.5" fill-rule="evenodd" clip-rule="evenodd" d="M-191.724 72.7411C-156.28 34.3857 -106.464 0.262977 -54.3213 3.18679C-2.15294 6.11204 28.7404 62.5071 74.5319 87.671C109.654 106.972 155.388 105.072 183.341 133.79C211.522 162.743 214.48 206.218 227.236 244.556C241.45 287.275 282.716 332.121 262.762 372.479C241.787 414.901 170.406 397.885 135.581 429.929C100.638 462.082 110.401 532.089 67.403 552.24C26.4533 571.43 -18.7602 533.642 -62.6739 522.838C-109.861 511.229 -180.398 530.074 -201.198 486.157C-224.976 435.951 -145.247 383.958 -154.401 329.164C-162.759 279.137 -239.738 261.932 -247.043 211.74C-254.351 161.537 -226.155 110 -191.724 72.7411Z" stroke="#FF6701" stroke-width="5" stroke-linecap="round" stroke-dasharray="30 30"/>
</svg>
